<?xml version="1.0" encoding="iso-8859-1"?>
<!-- Generator: Adobe Illustrator 19.0.0, SVG Export Plug-In . SVG Version: 6.00 Build 0)  -->
<svg version="1.1" id="Capa_1" xmlns="http://www.w3.org/2000/svg" xmlns:xlink="http://www.w3.org/1999/xlink" x="0px" y="0px"
	 viewBox="0 0 320 320" style="enable-background:new 0 0 320 320;" xml:space="preserve">
<g id="XMLID_1041_">
	<polygon id="XMLID_1042_" style="fill:#78B9EB;" points="30,215 30,185 160,185 160,135.003 0,135.003 0,255 160,255 160,215 	"/>
	<rect id="XMLID_1043_" y="65" style="fill:#78B9EB;" width="160" height="30.003"/>
	<rect id="XMLID_1044_" x="160" y="65" style="fill:#5A8BB0;" width="160" height="30.003"/>
	<path id="XMLID_1045_" style="fill:#5A8BB0;" d="M160,185v30v40h160V135.003H160V185z M220,175c8.179,0,15.439,3.928,20,9.999
		c4.561-6.071,11.821-9.999,20-9.999c13.808,0,25,11.192,25,25s-11.192,25-25,25c-8.179,0-15.439-3.928-20-9.999
		c-4.561,6.071-11.821,9.999-20,9.999c-13.808,0-25-11.192-25-25S206.192,175,220,175z"/>
	<polygon id="XMLID_1048_" style="fill:#3C5D76;" points="0,95.003 0,135.003 160,135.003 320,135.003 320,95.003 160,95.003 	"/>
	<rect id="XMLID_1049_" x="30" y="185" style="fill:#FFFFFF;" width="130" height="30"/>
	<path id="XMLID_1050_" style="fill:#FFDA44;" d="M220,225c8.179,0,15.439-3.928,20-9.999c-3.139-4.179-5-9.372-5-15.001
		s1.861-10.822,5-15.001c-4.561-6.071-11.821-9.999-20-9.999c-13.808,0-25,11.192-25,25S206.192,225,220,225z"/>
	<path id="XMLID_1051_" style="fill:#FF5023;" d="M240,215.001c4.561,6.071,11.821,9.999,20,9.999c13.808,0,25-11.192,25-25
		s-11.192-25-25-25c-8.179,0-15.439,3.928-20,9.999c-3.139,4.179-5,9.372-5,15.001S236.861,210.822,240,215.001z"/>
</g>
<g>
</g>
<g>
</g>
<g>
</g>
<g>
</g>
<g>
</g>
<g>
</g>
<g>
</g>
<g>
</g>
<g>
</g>
<g>
</g>
<g>
</g>
<g>
</g>
<g>
</g>
<g>
</g>
<g>
</g>
</svg>
